<svg xmlns="http://www.w3.org/2000/svg" width="920" height="350" viewBox="0 0 920 350">
<rect width="100%" height="100%" fill="#ffffff"/>
<text x="34" y="42" font-family="Arial, sans-serif" font-size="26" font-weight="700" fill="#111827">Packets carry state, margin, and relations</text>
<line x1="190.0" y1="68" x2="190.0" y2="250" stroke="#e5e7eb"/>
<text x="190.0" y="274" text-anchor="middle" font-family="Arial, sans-serif" font-size="13" fill="#4b5563">0%</text>
<line x1="345.0" y1="68" x2="345.0" y2="250" stroke="#e5e7eb"/>
<text x="345.0" y="274" text-anchor="middle" font-family="Arial, sans-serif" font-size="13" fill="#4b5563">25%</text>
<line x1="500.0" y1="68" x2="500.0" y2="250" stroke="#e5e7eb"/>
<text x="500.0" y="274" text-anchor="middle" font-family="Arial, sans-serif" font-size="13" fill="#4b5563">50%</text>
<line x1="655.0" y1="68" x2="655.0" y2="250" stroke="#e5e7eb"/>
<text x="655.0" y="274" text-anchor="middle" font-family="Arial, sans-serif" font-size="13" fill="#4b5563">75%</text>
<line x1="810.0" y1="68" x2="810.0" y2="250" stroke="#e5e7eb"/>
<text x="810.0" y="274" text-anchor="middle" font-family="Arial, sans-serif" font-size="13" fill="#4b5563">100%</text>
<text x="174" y="106" text-anchor="end" font-family="Arial, sans-serif" font-size="17" fill="#111827">state</text>
<rect x="190" y="88" width="543.8" height="10" fill="#2563eb"/>
<rect x="190" y="101" width="90.4" height="10" fill="#64748b"/>
<rect x="190" y="114" width="28.9" height="10" fill="#d97706"/>
<rect x="190" y="127" width="554.3" height="10" fill="#16a34a"/>
<text x="741.8" y="100" font-family="Arial, sans-serif" font-size="13" fill="#111827">87.7%</text>
<text x="174" y="168" text-anchor="end" font-family="Arial, sans-serif" font-size="17" fill="#111827">margin</text>
<rect x="190" y="150" width="345.5" height="10" fill="#2563eb"/>
<rect x="190" y="163" width="55.1" height="10" fill="#64748b"/>
<rect x="190" y="176" width="83.9" height="10" fill="#d97706"/>
<rect x="190" y="189" width="412.7" height="10" fill="#16a34a"/>
<text x="543.5" y="162" font-family="Arial, sans-serif" font-size="13" fill="#111827">55.7%</text>
<text x="174" y="230" text-anchor="end" font-family="Arial, sans-serif" font-size="17" fill="#111827">pair relation</text>
<rect x="190" y="212" width="382.5" height="10" fill="#2563eb"/>
<rect x="190" y="225" width="156.2" height="10" fill="#64748b"/>
<rect x="190" y="238" width="225.5" height="10" fill="#d97706"/>
<rect x="190" y="251" width="393.9" height="10" fill="#16a34a"/>
<text x="580.5" y="224" font-family="Arial, sans-serif" font-size="13" fill="#111827">61.7%</text>
<rect x="34" y="314" width="14" height="14" fill="#2563eb"/>
<text x="56" y="326" font-family="Arial, sans-serif" font-size="14" fill="#111827">socket</text>
<rect x="168" y="314" width="14" height="14" fill="#64748b"/>
<text x="190" y="326" font-family="Arial, sans-serif" font-size="14" fill="#111827">no packet</text>
<rect x="302" y="314" width="14" height="14" fill="#d97706"/>
<text x="324" y="326" font-family="Arial, sans-serif" font-size="14" fill="#111827">shuffled</text>
<rect x="436" y="314" width="14" height="14" fill="#16a34a"/>
<text x="458" y="326" font-family="Arial, sans-serif" font-size="14" fill="#111827">packet only</text>
</svg>