<svg xmlns="http://www.w3.org/2000/svg" width="1080" height="430" viewBox="0 0 1080 430">
<rect width="1080" height="430" fill="#fbfaf7"/>
<text x="48.0" y="58.0" font-family="Inter, Arial, sans-serif" font-size="26" font-weight="750" fill="#202124" text-anchor="start">Decoded Packet Semantics Compose Across Domains</text>
<text x="350.0" y="94.0" font-family="Inter, Arial, sans-serif" font-size="13" font-weight="400" fill="#6b7280" text-anchor="middle">seed A</text>
<text x="700.0" y="94.0" font-family="Inter, Arial, sans-serif" font-size="13" font-weight="400" fill="#6b7280" text-anchor="middle">seed B</text>
<text x="930.0" y="94.0" font-family="Inter, Arial, sans-serif" font-size="13" font-weight="400" fill="#6b7280" text-anchor="middle">real - shuffled</text>
<text x="62.0" y="174.0" font-family="Inter, Arial, sans-serif" font-size="17" font-weight="750" fill="#202124" text-anchor="start">Pair relation</text>
<rect x="190.0" y="146.0" width="280.0" height="24.0" rx="5.0" fill="#ece9df" stroke="none" />
<rect x="190.0" y="146.0" width="149.6" height="24.0" rx="5.0" fill="#2563eb" stroke="none" />
<text x="480.0" y="166.0" font-family="Inter, Arial, sans-serif" font-size="13" font-weight="400" fill="#202124" text-anchor="start">53.4%</text>
<rect x="190.0" y="180.0" width="280.0" height="15.0" rx="5.0" fill="#ece9df" stroke="none" />
<rect x="190.0" y="180.0" width="98.0" height="15.0" rx="5.0" fill="#b9b5aa" stroke="none" />
<text x="480.0" y="191.0" font-family="Inter, Arial, sans-serif" font-size="13" font-weight="400" fill="#202124" text-anchor="start">35.0%</text>
<rect x="540.0" y="146.0" width="280.0" height="24.0" rx="5.0" fill="#ece9df" stroke="none" />
<rect x="540.0" y="146.0" width="137.8" height="24.0" rx="5.0" fill="#2563eb" stroke="none" />
<text x="830.0" y="166.0" font-family="Inter, Arial, sans-serif" font-size="13" font-weight="400" fill="#202124" text-anchor="start">49.2%</text>
<rect x="540.0" y="180.0" width="280.0" height="15.0" rx="5.0" fill="#ece9df" stroke="none" />
<rect x="540.0" y="180.0" width="86.1" height="15.0" rx="5.0" fill="#b9b5aa" stroke="none" />
<text x="830.0" y="191.0" font-family="Inter, Arial, sans-serif" font-size="13" font-weight="400" fill="#202124" text-anchor="start">30.8%</text>
<text x="930.0" y="174.0" font-family="Inter, Arial, sans-serif" font-size="14" font-weight="750" fill="#2563eb" text-anchor="middle">+18.4 / +18.5 pts</text>
<text x="62.0" y="310.0" font-family="Inter, Arial, sans-serif" font-size="17" font-weight="750" fill="#202124" text-anchor="start">Set/ranking</text>
<rect x="190.0" y="282.0" width="280.0" height="24.0" rx="5.0" fill="#ece9df" stroke="none" />
<rect x="190.0" y="282.0" width="154.9" height="24.0" rx="5.0" fill="#0f766e" stroke="none" />
<text x="480.0" y="302.0" font-family="Inter, Arial, sans-serif" font-size="13" font-weight="400" fill="#202124" text-anchor="start">55.3%</text>
<rect x="190.0" y="316.0" width="280.0" height="15.0" rx="5.0" fill="#ece9df" stroke="none" />
<rect x="190.0" y="316.0" width="134.0" height="15.0" rx="5.0" fill="#b9b5aa" stroke="none" />
<text x="480.0" y="327.0" font-family="Inter, Arial, sans-serif" font-size="13" font-weight="400" fill="#202124" text-anchor="start">47.9%</text>
<rect x="540.0" y="282.0" width="280.0" height="24.0" rx="5.0" fill="#ece9df" stroke="none" />
<rect x="540.0" y="282.0" width="132.1" height="24.0" rx="5.0" fill="#0f766e" stroke="none" />
<text x="830.0" y="302.0" font-family="Inter, Arial, sans-serif" font-size="13" font-weight="400" fill="#202124" text-anchor="start">47.2%</text>
<rect x="540.0" y="316.0" width="280.0" height="15.0" rx="5.0" fill="#ece9df" stroke="none" />
<rect x="540.0" y="316.0" width="106.5" height="15.0" rx="5.0" fill="#b9b5aa" stroke="none" />
<text x="830.0" y="327.0" font-family="Inter, Arial, sans-serif" font-size="13" font-weight="400" fill="#202124" text-anchor="start">38.0%</text>
<text x="930.0" y="310.0" font-family="Inter, Arial, sans-serif" font-size="14" font-weight="750" fill="#0f766e" text-anchor="middle">+7.4 / +9.1 pts</text>
<line x1="260.0" y1="122.0" x2="260.0" y2="416.0" stroke="#d8d8d0" stroke-width="1.0" stroke-linecap="round" stroke-dasharray="4 6"/>
<text x="260.0" y="112.0" font-family="Inter, Arial, sans-serif" font-size="10" font-weight="400" fill="#6b7280" text-anchor="middle">25</text>
<line x1="610.0" y1="122.0" x2="610.0" y2="416.0" stroke="#d8d8d0" stroke-width="1.0" stroke-linecap="round" stroke-dasharray="4 6"/>
<text x="610.0" y="112.0" font-family="Inter, Arial, sans-serif" font-size="10" font-weight="400" fill="#6b7280" text-anchor="middle">25</text>
<line x1="330.0" y1="122.0" x2="330.0" y2="416.0" stroke="#d8d8d0" stroke-width="1.0" stroke-linecap="round" stroke-dasharray="4 6"/>
<text x="330.0" y="112.0" font-family="Inter, Arial, sans-serif" font-size="10" font-weight="400" fill="#6b7280" text-anchor="middle">50</text>
<line x1="680.0" y1="122.0" x2="680.0" y2="416.0" stroke="#d8d8d0" stroke-width="1.0" stroke-linecap="round" stroke-dasharray="4 6"/>
<text x="680.0" y="112.0" font-family="Inter, Arial, sans-serif" font-size="10" font-weight="400" fill="#6b7280" text-anchor="middle">50</text>
<line x1="400.0" y1="122.0" x2="400.0" y2="416.0" stroke="#d8d8d0" stroke-width="1.0" stroke-linecap="round" stroke-dasharray="4 6"/>
<text x="400.0" y="112.0" font-family="Inter, Arial, sans-serif" font-size="10" font-weight="400" fill="#6b7280" text-anchor="middle">75</text>
<line x1="750.0" y1="122.0" x2="750.0" y2="416.0" stroke="#d8d8d0" stroke-width="1.0" stroke-linecap="round" stroke-dasharray="4 6"/>
<text x="750.0" y="112.0" font-family="Inter, Arial, sans-serif" font-size="10" font-weight="400" fill="#6b7280" text-anchor="middle">75</text>
<line x1="470.0" y1="122.0" x2="470.0" y2="416.0" stroke="#d8d8d0" stroke-width="1.0" stroke-linecap="round" stroke-dasharray="4 6"/>
<text x="470.0" y="112.0" font-family="Inter, Arial, sans-serif" font-size="10" font-weight="400" fill="#6b7280" text-anchor="middle">100</text>
<line x1="820.0" y1="122.0" x2="820.0" y2="416.0" stroke="#d8d8d0" stroke-width="1.0" stroke-linecap="round" stroke-dasharray="4 6"/>
<text x="820.0" y="112.0" font-family="Inter, Arial, sans-serif" font-size="10" font-weight="400" fill="#6b7280" text-anchor="middle">100</text>
</svg>
