<svg xmlns="http://www.w3.org/2000/svg" width="960" height="480" viewBox="0 0 960 480">
<rect width="100%" height="100%" fill="#fffdf7"/>
<text x="24" y="227.0" font-size="13" font-family="Helvetica, Arial, sans-serif" fill="#374151" transform="rotate(-90 24 227.0)">accuracy</text>
<line x1="84" y1="74" x2="84" y2="380" stroke="#111827" stroke-width="1.5"/>
<line x1="84" y1="380" x2="920" y2="380" stroke="#111827" stroke-width="1.5"/>
<line x1="84" y1="380.00" x2="920" y2="380.00" stroke="#e5e7eb" stroke-width="1"/>
<text x="74" y="384.00" text-anchor="end" font-size="12" font-family="Helvetica, Arial, sans-serif" fill="#374151">0.0%</text>
<line x1="84" y1="303.50" x2="920" y2="303.50" stroke="#e5e7eb" stroke-width="1"/>
<text x="74" y="307.50" text-anchor="end" font-size="12" font-family="Helvetica, Arial, sans-serif" fill="#374151">25.0%</text>
<line x1="84" y1="227.00" x2="920" y2="227.00" stroke="#e5e7eb" stroke-width="1"/>
<text x="74" y="231.00" text-anchor="end" font-size="12" font-family="Helvetica, Arial, sans-serif" fill="#374151">50.0%</text>
<line x1="84" y1="150.50" x2="920" y2="150.50" stroke="#e5e7eb" stroke-width="1"/>
<text x="74" y="154.50" text-anchor="end" font-size="12" font-family="Helvetica, Arial, sans-serif" fill="#374151">75.0%</text>
<line x1="84" y1="74.00" x2="920" y2="74.00" stroke="#e5e7eb" stroke-width="1"/>
<text x="74" y="78.00" text-anchor="end" font-size="12" font-family="Helvetica, Arial, sans-serif" fill="#374151">100.0%</text>
<rect x="110.47" y="75.19" width="86.39" height="304.81" rx="8" fill="#0f766e"/>
<text x="153.67" y="65.19" text-anchor="middle" font-size="12" font-family="Helvetica, Arial, sans-serif" fill="#111827">99.6%</text>
<text x="153.67" y="402.00" text-anchor="middle" font-size="12" font-family="Helvetica, Arial, sans-serif" fill="#111827">q=17 w=128</text>
<rect x="249.81" y="74.47" width="86.39" height="305.53" rx="8" fill="#2563eb"/>
<text x="293.00" y="64.47" text-anchor="middle" font-size="12" font-family="Helvetica, Arial, sans-serif" fill="#111827">99.8%</text>
<text x="293.00" y="402.00" text-anchor="middle" font-size="12" font-family="Helvetica, Arial, sans-serif" fill="#111827">q=17 w=256</text>
<rect x="389.14" y="175.18" width="86.39" height="204.82" rx="8" fill="#d97706"/>
<text x="432.33" y="165.18" text-anchor="middle" font-size="12" font-family="Helvetica, Arial, sans-serif" fill="#111827">66.9%</text>
<text x="432.33" y="402.00" text-anchor="middle" font-size="12" font-family="Helvetica, Arial, sans-serif" fill="#111827">q=23 w=128</text>
<rect x="528.47" y="74.47" width="86.39" height="305.53" rx="8" fill="#dc2626"/>
<text x="571.67" y="64.47" text-anchor="middle" font-size="12" font-family="Helvetica, Arial, sans-serif" fill="#111827">99.8%</text>
<text x="571.67" y="402.00" text-anchor="middle" font-size="12" font-family="Helvetica, Arial, sans-serif" fill="#111827">q=23 w=256</text>
<rect x="667.81" y="226.00" width="86.39" height="154.00" rx="8" fill="#7c3aed"/>
<text x="711.00" y="216.00" text-anchor="middle" font-size="12" font-family="Helvetica, Arial, sans-serif" fill="#111827">50.3%</text>
<text x="711.00" y="402.00" text-anchor="middle" font-size="12" font-family="Helvetica, Arial, sans-serif" fill="#111827">q=31 w=128</text>
<rect x="807.14" y="152.26" width="86.39" height="227.74" rx="8" fill="#0f766e"/>
<text x="850.33" y="142.26" text-anchor="middle" font-size="12" font-family="Helvetica, Arial, sans-serif" fill="#111827">74.4%</text>
<text x="850.33" y="402.00" text-anchor="middle" font-size="12" font-family="Helvetica, Arial, sans-serif" fill="#111827">q=31 w=256</text>
</svg>
