<svg xmlns="http://www.w3.org/2000/svg" width="960" height="560" viewBox="0 0 960 560">
<rect width="100%" height="100%" fill="#fffdf7"/>
<text x="84" y="34" font-size="26" font-family="Georgia, serif" fill="#111827">Probe-Derived Patching Produces Donor-Directed Transfer</text>
<text x="84" y="56" font-size="14" font-family="Helvetica, Arial, sans-serif" fill="#4b5563">Key 401, 2D class-flip patch-faithfulness run</text>
<text x="24" y="303.0" font-size="13" font-family="Helvetica, Arial, sans-serif" fill="#374151" transform="rotate(-90 24 303.0)">donor-side transfer</text>
<line x1="84" y1="138" x2="84" y2="468" stroke="#111827" stroke-width="1.5"/>
<line x1="84" y1="468" x2="920" y2="468" stroke="#111827" stroke-width="1.5"/>
<line x1="84" y1="468.00" x2="920" y2="468.00" stroke="#e5e7eb" stroke-width="1"/>
<text x="74" y="472.00" text-anchor="end" font-size="12" font-family="Helvetica, Arial, sans-serif" fill="#374151">0.0%</text>
<line x1="84" y1="385.50" x2="920" y2="385.50" stroke="#e5e7eb" stroke-width="1"/>
<text x="74" y="389.50" text-anchor="end" font-size="12" font-family="Helvetica, Arial, sans-serif" fill="#374151">25.0%</text>
<line x1="84" y1="303.00" x2="920" y2="303.00" stroke="#e5e7eb" stroke-width="1"/>
<text x="74" y="307.00" text-anchor="end" font-size="12" font-family="Helvetica, Arial, sans-serif" fill="#374151">50.0%</text>
<line x1="84" y1="220.50" x2="920" y2="220.50" stroke="#e5e7eb" stroke-width="1"/>
<text x="74" y="224.50" text-anchor="end" font-size="12" font-family="Helvetica, Arial, sans-serif" fill="#374151">75.0%</text>
<line x1="84" y1="138.00" x2="920" y2="138.00" stroke="#e5e7eb" stroke-width="1"/>
<text x="74" y="142.00" text-anchor="end" font-size="12" font-family="Helvetica, Arial, sans-serif" fill="#374151">100.0%</text>
<rect x="84" y="66" width="18" height="10" rx="3" fill="#2563eb"/>
<text x="110" y="75" font-size="12" font-family="Helvetica, Arial, sans-serif" fill="#111827">donor beta</text>
<rect x="196" y="66" width="18" height="10" rx="3" fill="#0f766e"/>
<text x="222" y="75" font-size="12" font-family="Helvetica, Arial, sans-serif" fill="#111827">donor d</text>
<rect x="118.50" y="138.97" width="66.00" height="329.03" rx="6" fill="#2563eb"/>
<text x="151.50" y="150.00" text-anchor="middle" font-size="11" font-family="Helvetica, Arial, sans-serif" fill="#111827">99.7%</text>
<rect x="188.50" y="138.97" width="66.00" height="329.03" rx="6" fill="#0f766e"/>
<text x="221.50" y="150.00" text-anchor="middle" font-size="11" font-family="Helvetica, Arial, sans-serif" fill="#111827">99.7%</text>
<text x="188.50" y="492.00" text-anchor="middle" font-size="12" font-family="Helvetica, Arial, sans-serif" fill="#111827">full</text>
<rect x="327.50" y="164.18" width="66.00" height="303.82" rx="6" fill="#2563eb"/>
<text x="360.50" y="156.18" text-anchor="middle" font-size="11" font-family="Helvetica, Arial, sans-serif" fill="#111827">92.1%</text>
<rect x="397.50" y="139.37" width="66.00" height="328.63" rx="6" fill="#0f766e"/>
<text x="430.50" y="150.00" text-anchor="middle" font-size="11" font-family="Helvetica, Arial, sans-serif" fill="#111827">99.6%</text>
<text x="397.50" y="492.00" text-anchor="middle" font-size="12" font-family="Helvetica, Arial, sans-serif" fill="#111827">2D subspace</text>
<rect x="536.50" y="441.01" width="66.00" height="26.99" rx="6" fill="#2563eb"/>
<text x="569.50" y="433.01" text-anchor="middle" font-size="11" font-family="Helvetica, Arial, sans-serif" fill="#111827">8.2%</text>
<rect x="606.50" y="466.95" width="66.00" height="1.05" rx="6" fill="#0f766e"/>
<text x="639.50" y="458.95" text-anchor="middle" font-size="11" font-family="Helvetica, Arial, sans-serif" fill="#111827">0.3%</text>
<text x="606.50" y="492.00" text-anchor="middle" font-size="12" font-family="Helvetica, Arial, sans-serif" fill="#111827">complement</text>
<rect x="745.50" y="467.11" width="66.00" height="0.89" rx="6" fill="#2563eb"/>
<text x="778.50" y="459.11" text-anchor="middle" font-size="11" font-family="Helvetica, Arial, sans-serif" fill="#111827">0.3%</text>
<rect x="815.50" y="467.52" width="66.00" height="0.48" rx="6" fill="#0f766e"/>
<text x="848.50" y="459.52" text-anchor="middle" font-size="11" font-family="Helvetica, Arial, sans-serif" fill="#111827">0.1%</text>
<text x="815.50" y="492.00" text-anchor="middle" font-size="12" font-family="Helvetica, Arial, sans-serif" fill="#111827">random</text>
</svg>