<svg xmlns="http://www.w3.org/2000/svg" width="960" height="640" viewBox="0 0 960 640">
<rect width="100%" height="100%" fill="#fffdf7"/>
<text x="84" y="34" font-size="26" font-family="Georgia, serif" fill="#111827">Same-Key Winners Preserve Ordering but Vary in Strength</text>
<text x="84" y="56" font-size="14" font-family="Helvetica, Arial, sans-serif" fill="#4b5563">2D class-flip patch-faithfulness across independently trained same-key winners</text>
<rect x="84" y="78" width="18" height="10" rx="3" fill="#2563eb"/>
<text x="110" y="87" font-size="12" font-family="Helvetica, Arial, sans-serif" fill="#111827">full</text>
<rect x="206" y="78" width="18" height="10" rx="3" fill="#0f766e"/>
<text x="232" y="87" font-size="12" font-family="Helvetica, Arial, sans-serif" fill="#111827">subspace</text>
<rect x="328" y="78" width="18" height="10" rx="3" fill="#d97706"/>
<text x="354" y="87" font-size="12" font-family="Helvetica, Arial, sans-serif" fill="#111827">complement</text>
<rect x="450" y="78" width="18" height="10" rx="3" fill="#dc2626"/>
<text x="476" y="87" font-size="12" font-family="Helvetica, Arial, sans-serif" fill="#111827">random</text>
<text x="84" y="112.00" font-size="15" font-family="Helvetica, Arial, sans-serif" font-weight="700" fill="#111827">Donor beta transfer</text>
<line x1="84" y1="128" x2="84" y2="321.0" stroke="#111827" stroke-width="1.4"/>
<line x1="84" y1="321.0" x2="920" y2="321.0" stroke="#111827" stroke-width="1.4"/>
<line x1="84" y1="321.00" x2="920" y2="321.00" stroke="#e5e7eb" stroke-width="1"/>
<text x="74" y="325.00" text-anchor="end" font-size="11" font-family="Helvetica, Arial, sans-serif" fill="#374151">0.0%</text>
<line x1="84" y1="272.75" x2="920" y2="272.75" stroke="#e5e7eb" stroke-width="1"/>
<text x="74" y="276.75" text-anchor="end" font-size="11" font-family="Helvetica, Arial, sans-serif" fill="#374151">25.0%</text>
<line x1="84" y1="224.50" x2="920" y2="224.50" stroke="#e5e7eb" stroke-width="1"/>
<text x="74" y="228.50" text-anchor="end" font-size="11" font-family="Helvetica, Arial, sans-serif" fill="#374151">50.0%</text>
<line x1="84" y1="176.25" x2="920" y2="176.25" stroke="#e5e7eb" stroke-width="1"/>
<text x="74" y="180.25" text-anchor="end" font-size="11" font-family="Helvetica, Arial, sans-serif" fill="#374151">75.0%</text>
<line x1="84" y1="128.00" x2="920" y2="128.00" stroke="#e5e7eb" stroke-width="1"/>
<text x="74" y="132.00" text-anchor="end" font-size="11" font-family="Helvetica, Arial, sans-serif" fill="#374151">100.0%</text>
<rect x="114.10" y="128.09" width="22.75" height="192.91" rx="5" fill="#2563eb"/>
<rect x="140.85" y="180.02" width="22.75" height="140.98" rx="5" fill="#0f766e"/>
<rect x="167.60" y="272.94" width="22.75" height="48.06" rx="5" fill="#d97706"/>
<rect x="194.35" y="320.15" width="22.75" height="0.85" rx="5" fill="#dc2626"/>
<text x="167.60" y="343.00" text-anchor="middle" font-size="12" font-family="Helvetica, Arial, sans-serif" fill="#111827">401</text>
<rect x="281.30" y="128.09" width="22.75" height="192.91" rx="5" fill="#2563eb"/>
<rect x="308.05" y="141.10" width="22.75" height="179.90" rx="5" fill="#0f766e"/>
<rect x="334.80" y="307.90" width="22.75" height="13.10" rx="5" fill="#d97706"/>
<rect x="361.55" y="320.81" width="22.75" height="0.19" rx="5" fill="#dc2626"/>
<text x="334.80" y="343.00" text-anchor="middle" font-size="12" font-family="Helvetica, Arial, sans-serif" fill="#111827">813</text>
<rect x="448.50" y="128.09" width="22.75" height="192.91" rx="5" fill="#2563eb"/>
<rect x="475.25" y="216.68" width="22.75" height="104.32" rx="5" fill="#0f766e"/>
<rect x="502.00" y="224.22" width="22.75" height="96.78" rx="5" fill="#d97706"/>
<rect x="528.75" y="320.91" width="22.75" height="0.09" rx="5" fill="#dc2626"/>
<text x="502.00" y="343.00" text-anchor="middle" font-size="12" font-family="Helvetica, Arial, sans-serif" fill="#111827">814</text>
<rect x="615.70" y="128.47" width="22.75" height="192.53" rx="5" fill="#2563eb"/>
<rect x="642.45" y="284.06" width="22.75" height="36.94" rx="5" fill="#0f766e"/>
<rect x="669.20" y="166.26" width="22.75" height="154.74" rx="5" fill="#d97706"/>
<rect x="695.95" y="320.15" width="22.75" height="0.85" rx="5" fill="#dc2626"/>
<text x="669.20" y="343.00" text-anchor="middle" font-size="12" font-family="Helvetica, Arial, sans-serif" fill="#111827">815</text>
<rect x="782.90" y="128.66" width="22.75" height="192.34" rx="5" fill="#2563eb"/>
<rect x="809.65" y="192.27" width="22.75" height="128.73" rx="5" fill="#0f766e"/>
<rect x="836.40" y="257.48" width="22.75" height="63.52" rx="5" fill="#d97706"/>
<rect x="863.15" y="320.53" width="22.75" height="0.47" rx="5" fill="#dc2626"/>
<text x="836.40" y="343.00" text-anchor="middle" font-size="12" font-family="Helvetica, Arial, sans-serif" fill="#111827">816</text>
<text x="84" y="359.00" font-size="15" font-family="Helvetica, Arial, sans-serif" font-weight="700" fill="#111827">Donor latent d transfer</text>
<line x1="84" y1="375.0" x2="84" y2="568.0" stroke="#111827" stroke-width="1.4"/>
<line x1="84" y1="568.0" x2="920" y2="568.0" stroke="#111827" stroke-width="1.4"/>
<line x1="84" y1="568.00" x2="920" y2="568.00" stroke="#e5e7eb" stroke-width="1"/>
<text x="74" y="572.00" text-anchor="end" font-size="11" font-family="Helvetica, Arial, sans-serif" fill="#374151">0.0%</text>
<line x1="84" y1="519.75" x2="920" y2="519.75" stroke="#e5e7eb" stroke-width="1"/>
<text x="74" y="523.75" text-anchor="end" font-size="11" font-family="Helvetica, Arial, sans-serif" fill="#374151">25.0%</text>
<line x1="84" y1="471.50" x2="920" y2="471.50" stroke="#e5e7eb" stroke-width="1"/>
<text x="74" y="475.50" text-anchor="end" font-size="11" font-family="Helvetica, Arial, sans-serif" fill="#374151">50.0%</text>
<line x1="84" y1="423.25" x2="920" y2="423.25" stroke="#e5e7eb" stroke-width="1"/>
<text x="74" y="427.25" text-anchor="end" font-size="11" font-family="Helvetica, Arial, sans-serif" fill="#374151">75.0%</text>
<line x1="84" y1="375.00" x2="920" y2="375.00" stroke="#e5e7eb" stroke-width="1"/>
<text x="74" y="379.00" text-anchor="end" font-size="11" font-family="Helvetica, Arial, sans-serif" fill="#374151">100.0%</text>
<rect x="114.10" y="375.09" width="22.75" height="192.91" rx="5" fill="#2563eb"/>
<rect x="140.85" y="375.09" width="22.75" height="192.91" rx="5" fill="#0f766e"/>
<rect x="167.60" y="567.62" width="22.75" height="0.38" rx="5" fill="#d97706"/>
<rect x="194.35" y="567.43" width="22.75" height="0.57" rx="5" fill="#dc2626"/>
<text x="167.60" y="590.00" text-anchor="middle" font-size="12" font-family="Helvetica, Arial, sans-serif" fill="#111827">401</text>
<rect x="281.30" y="375.09" width="22.75" height="192.91" rx="5" fill="#2563eb"/>
<rect x="308.05" y="375.28" width="22.75" height="192.72" rx="5" fill="#0f766e"/>
<rect x="334.80" y="567.81" width="22.75" height="0.19" rx="5" fill="#d97706"/>
<rect x="361.55" y="567.81" width="22.75" height="0.19" rx="5" fill="#dc2626"/>
<text x="334.80" y="590.00" text-anchor="middle" font-size="12" font-family="Helvetica, Arial, sans-serif" fill="#111827">813</text>
<rect x="448.50" y="375.09" width="22.75" height="192.91" rx="5" fill="#2563eb"/>
<rect x="475.25" y="375.09" width="22.75" height="192.91" rx="5" fill="#0f766e"/>
<rect x="502.00" y="567.91" width="22.75" height="0.09" rx="5" fill="#d97706"/>
<rect x="528.75" y="567.91" width="22.75" height="0.09" rx="5" fill="#dc2626"/>
<text x="502.00" y="590.00" text-anchor="middle" font-size="12" font-family="Helvetica, Arial, sans-serif" fill="#111827">814</text>
<rect x="615.70" y="375.00" width="22.75" height="193.00" rx="5" fill="#2563eb"/>
<rect x="642.45" y="375.09" width="22.75" height="192.91" rx="5" fill="#0f766e"/>
<rect x="669.20" y="568.00" width="22.75" height="0.00" rx="5" fill="#d97706"/>
<rect x="695.95" y="567.91" width="22.75" height="0.09" rx="5" fill="#dc2626"/>
<text x="669.20" y="590.00" text-anchor="middle" font-size="12" font-family="Helvetica, Arial, sans-serif" fill="#111827">815</text>
<rect x="782.90" y="375.66" width="22.75" height="192.34" rx="5" fill="#2563eb"/>
<rect x="809.65" y="377.54" width="22.75" height="190.46" rx="5" fill="#0f766e"/>
<rect x="836.40" y="567.53" width="22.75" height="0.47" rx="5" fill="#d97706"/>
<rect x="863.15" y="567.53" width="22.75" height="0.47" rx="5" fill="#dc2626"/>
<text x="836.40" y="590.00" text-anchor="middle" font-size="12" font-family="Helvetica, Arial, sans-serif" fill="#111827">816</text>
<text x="24" y="348.00" font-size="13" font-family="Helvetica, Arial, sans-serif" fill="#374151" transform="rotate(-90 24 348.00)">donor-side transfer</text>
<desc>
full: 100.0%, 100.0%, 100.0%, 100.0%, 99.7%
subspace: 100.0%, 99.9%, 100.0%, 100.0%, 98.7%
complement: 0.2%, 0.1%, 0.0%, 0.0%, 0.2%
random: 0.3%, 0.1%, 0.0%, 0.0%, 0.2%
</desc>
</svg>